<?xml version="1.0" encoding="UTF-8"?>
<svg xmlns="http://www.w3.org/2000/svg" xmlns:xlink="http://www.w3.org/1999/xlink" width="48pt" height="48pt" viewBox="0 0 48 48" version="1.2">
<defs>
<clipPath id="clip1">
  <path d="M 5.191406 8.445312 L 43.800781 8.445312 L 43.800781 40 L 5.191406 40 Z M 5.191406 8.445312 "/>
</clipPath>
<clipPath id="clip2">
  <path d="M 9 22 L 40 22 L 40 47.019531 L 9 47.019531 Z M 9 22 "/>
</clipPath>
<clipPath id="clip3">
  <path d="M 17 8.445312 L 22 8.445312 L 22 15 L 17 15 Z M 17 8.445312 "/>
</clipPath>
<clipPath id="clip4">
  <path d="M 27 8.445312 L 32 8.445312 L 32 15 L 27 15 Z M 27 8.445312 "/>
</clipPath>
<clipPath id="clip5">
  <path d="M 16 4 L 33 4 L 33 13.828125 L 16 13.828125 Z M 16 4 "/>
</clipPath>
<clipPath id="clip6">
  <path d="M 11.082031 7 L 15 7 L 15 9 L 11.082031 9 Z M 11.082031 7 "/>
</clipPath>
<clipPath id="clip7">
  <path d="M 35 6 L 37.882812 6 L 37.882812 7 L 35 7 Z M 35 6 "/>
</clipPath>
<clipPath id="clip8">
  <path d="M 35 9 L 37.882812 9 L 37.882812 11 L 35 11 Z M 35 9 "/>
</clipPath>
</defs>
<g id="surface1">
<g clip-path="url(#clip1)" clip-rule="nonzero">
<path style=" stroke:none;fill-rule:nonzero;fill:rgb(52.159119%,98.039246%,95.689392%);fill-opacity:1;" d="M 39.632812 39.804688 C 42.265625 36.503906 43.835938 32.320312 43.835938 27.769531 C 43.835938 17.097656 35.1875 8.445312 24.515625 8.445312 C 13.84375 8.445312 5.191406 17.097656 5.191406 27.769531 C 5.191406 32.320312 6.765625 36.503906 9.398438 39.804688 Z M 39.632812 39.804688 "/>
</g>
<g clip-path="url(#clip2)" clip-rule="nonzero">
<path style=" stroke:none;fill-rule:nonzero;fill:rgb(69.799805%,21.958923%,10.5896%);fill-opacity:1;" d="M 15.910156 22.183594 L 9.398438 39.804688 C 12.9375 44.246094 18.394531 47.09375 24.515625 47.09375 C 30.636719 47.09375 36.09375 44.246094 39.632812 39.804688 L 33.117188 22.183594 Z M 15.910156 22.183594 "/>
</g>
<path style=" stroke:none;fill-rule:nonzero;fill:rgb(61.959839%,17.649841%,8.628845%);fill-opacity:1;" d="M 17.269531 22.183594 L 15.910156 22.183594 L 9.398438 39.804688 C 11.546875 42.503906 14.40625 44.609375 17.691406 45.851562 L 18.835938 41.214844 C 18.945312 40.785156 18.410156 40.492188 18.105469 40.816406 L 17.742188 41.199219 C 17.433594 41.527344 16.890625 41.222656 17.015625 40.789062 L 17.644531 38.585938 C 17.761719 38.171875 17.269531 37.859375 16.945312 38.144531 C 16.609375 38.4375 16.101562 38.089844 16.257812 37.671875 L 21.949219 22.183594 Z M 17.269531 22.183594 "/>
<g clip-path="url(#clip3)" clip-rule="nonzero">
<path style=" stroke:none;fill-rule:nonzero;fill:rgb(75.289917%,29.019165%,15.289307%);fill-opacity:1;" d="M 21.964844 10.949219 C 20.1875 11.5 19.808594 8.445312 18.402344 8.445312 C 16.992188 8.445312 17.796875 14.359375 17.796875 14.359375 L 21.964844 11.996094 Z M 21.964844 10.949219 "/>
</g>
<g clip-path="url(#clip4)" clip-rule="nonzero">
<path style=" stroke:none;fill-rule:nonzero;fill:rgb(75.289917%,29.019165%,15.289307%);fill-opacity:1;" d="M 27.0625 10.949219 C 28.84375 11.5 29.21875 8.445312 30.628906 8.445312 C 32.039062 8.445312 31.230469 14.359375 31.230469 14.359375 L 27.0625 11.996094 Z M 27.0625 10.949219 "/>
</g>
<path style=" stroke:none;fill-rule:nonzero;fill:rgb(69.799805%,21.958923%,10.5896%);fill-opacity:1;" d="M 31.445312 11.832031 C 30.699219 11.132812 29.796875 10.597656 28.746094 10.226562 C 28.3125 10.773438 27.8125 11.179688 27.0625 10.949219 L 27.0625 11.996094 L 31.230469 14.359375 C 31.230469 14.359375 31.394531 13.152344 31.445312 11.832031 Z M 31.445312 11.832031 "/>
<path style=" stroke:none;fill-rule:nonzero;fill:rgb(69.799805%,21.958923%,10.5896%);fill-opacity:1;" d="M 17.796875 14.359375 L 21.964844 11.996094 L 21.964844 10.949219 C 21.226562 11.175781 20.730469 10.78125 20.296875 10.246094 C 19.238281 10.628906 18.332031 11.179688 17.585938 11.894531 C 17.636719 13.191406 17.796875 14.359375 17.796875 14.359375 Z M 17.796875 14.359375 "/>
<path style=" stroke:none;fill-rule:nonzero;fill:rgb(84.709167%,36.859131%,25.489807%);fill-opacity:1;" d="M 34.667969 21.761719 C 33.214844 20.4375 32.398438 18.554688 32.398438 16.589844 L 32.398438 16.527344 C 32.398438 14.3125 30.78125 10.710938 24.550781 10.710938 C 18.320312 10.710938 16.699219 14.3125 16.699219 16.527344 C 16.699219 18.515625 15.851562 20.410156 14.375 21.75 C 12.6875 23.285156 11.683594 25.210938 11.683594 27.300781 C 11.683594 32.304688 17.429688 36.359375 24.515625 36.359375 C 31.601562 36.359375 37.347656 32.304688 37.347656 27.300781 C 37.347656 25.214844 36.347656 23.292969 34.667969 21.761719 Z M 34.667969 21.761719 "/>
<path style=" stroke:none;fill-rule:nonzero;fill:rgb(75.289917%,29.019165%,15.289307%);fill-opacity:1;" d="M 30.425781 35.34375 C 20.179688 35.445312 15.671875 31.167969 15.671875 26.6875 C 15.671875 22.210938 18.652344 20.347656 19.417969 17.039062 C 20.1875 13.730469 24.035156 10.949219 27.0625 10.949219 L 27.0625 10.941406 C 26.324219 10.792969 25.488281 10.710938 24.550781 10.710938 C 18.320312 10.710938 16.699219 14.3125 16.699219 16.527344 C 16.699219 18.515625 15.851562 20.410156 14.375 21.75 C 12.6875 23.285156 11.683594 25.210938 11.683594 27.300781 C 11.683594 32.304688 17.429688 36.359375 24.515625 36.359375 C 26.644531 36.359375 28.65625 35.992188 30.425781 35.34375 Z M 30.425781 35.34375 "/>
<path style=" stroke:none;fill-rule:nonzero;fill:rgb(95.689392%,79.60968%,43.139648%);fill-opacity:1;" d="M 28.042969 29.222656 C 28.042969 31.171875 26.464844 32.75 24.515625 32.75 C 22.566406 32.75 20.984375 31.171875 20.984375 29.222656 C 20.984375 27.273438 22.566406 25.691406 24.515625 25.691406 C 26.464844 25.691406 28.042969 27.273438 28.042969 29.222656 Z M 28.042969 29.222656 "/>
<path style=" stroke:none;fill-rule:nonzero;fill:rgb(97.648621%,84.309387%,47.059631%);fill-opacity:1;" d="M 26.886719 20.386719 L 22.140625 20.386719 C 20.828125 20.386719 19.765625 21.449219 19.765625 22.757812 L 19.765625 28.015625 C 19.765625 29.324219 20.828125 30.386719 22.140625 30.386719 C 23.453125 30.386719 24.515625 29.324219 24.515625 28.015625 C 24.515625 29.324219 25.578125 30.386719 26.886719 30.386719 C 28.199219 30.386719 29.261719 29.324219 29.261719 28.015625 L 29.261719 22.757812 C 29.261719 21.449219 28.199219 20.386719 26.886719 20.386719 Z M 26.886719 20.386719 "/>
<path style=" stroke:none;fill-rule:nonzero;fill:rgb(95.689392%,79.60968%,43.139648%);fill-opacity:1;" d="M 22.140625 28.015625 L 22.140625 22.757812 C 22.140625 21.449219 23.203125 20.386719 24.515625 20.386719 L 22.140625 20.386719 C 20.828125 20.386719 19.765625 21.449219 19.765625 22.757812 L 19.765625 28.015625 C 19.765625 29.324219 20.828125 30.386719 22.140625 30.386719 C 22.574219 30.386719 22.976562 30.273438 23.328125 30.070312 C 22.617188 29.660156 22.140625 28.890625 22.140625 28.015625 Z M 22.140625 28.015625 "/>
<path style=" stroke:none;fill-rule:nonzero;fill:rgb(95.689392%,79.60968%,43.139648%);fill-opacity:1;" d="M 24.515625 30.386719 C 24.203125 30.386719 23.949219 30.132812 23.949219 29.820312 L 23.949219 21.925781 C 23.949219 21.613281 24.203125 21.359375 24.515625 21.359375 C 24.828125 21.359375 25.082031 21.613281 25.082031 21.925781 L 25.082031 29.820312 C 25.082031 30.132812 24.828125 30.386719 24.515625 30.386719 Z M 24.515625 30.386719 "/>
<path style=" stroke:none;fill-rule:nonzero;fill:rgb(49.409485%,34.899902%,39.99939%);fill-opacity:1;" d="M 26.664062 19.085938 C 25.84375 18.648438 25.503906 19.511719 24.515625 19.511719 C 23.527344 19.511719 23.1875 18.648438 22.363281 19.085938 C 20.214844 20.226562 22.363281 22.84375 24.515625 22.84375 C 26.664062 22.84375 28.816406 20.226562 26.664062 19.085938 Z M 26.664062 19.085938 "/>
<path style=" stroke:none;fill-rule:nonzero;fill:rgb(44.709778%,31.369019%,34.118652%);fill-opacity:1;" d="M 23.742188 19.324219 C 23.265625 19.097656 22.929688 18.785156 22.363281 19.085938 C 20.214844 20.226562 22.363281 22.84375 24.515625 22.84375 C 24.808594 22.84375 25.101562 22.792969 25.386719 22.707031 C 23.734375 22.195312 22.457031 20.375 23.742188 19.324219 Z M 23.742188 19.324219 "/>
<path style=" stroke:none;fill-rule:nonzero;fill:rgb(32.939148%,20.388794%,21.958923%);fill-opacity:1;" d="M 20.550781 17.039062 C 20.550781 17.664062 20.046875 18.171875 19.417969 18.171875 C 18.792969 18.171875 18.289062 17.664062 18.289062 17.039062 C 18.289062 16.414062 18.792969 15.90625 19.417969 15.90625 C 20.046875 15.90625 20.550781 16.414062 20.550781 17.039062 Z M 20.550781 17.039062 "/>
<path style=" stroke:none;fill-rule:nonzero;fill:rgb(100%,100%,100%);fill-opacity:1;" d="M 20.550781 16.472656 C 20.550781 16.785156 20.296875 17.039062 19.984375 17.039062 C 19.671875 17.039062 19.417969 16.785156 19.417969 16.472656 C 19.417969 16.160156 19.671875 15.90625 19.984375 15.90625 C 20.296875 15.90625 20.550781 16.160156 20.550781 16.472656 Z M 20.550781 16.472656 "/>
<path style=" stroke:none;fill-rule:nonzero;fill:rgb(32.939148%,20.388794%,21.958923%);fill-opacity:1;" d="M 30.742188 17.039062 C 30.742188 17.664062 30.234375 18.171875 29.609375 18.171875 C 28.984375 18.171875 28.476562 17.664062 28.476562 17.039062 C 28.476562 16.414062 28.984375 15.90625 29.609375 15.90625 C 30.234375 15.90625 30.742188 16.414062 30.742188 17.039062 Z M 30.742188 17.039062 "/>
<path style=" stroke:none;fill-rule:nonzero;fill:rgb(100%,100%,100%);fill-opacity:1;" d="M 30.742188 16.472656 C 30.742188 16.785156 30.488281 17.039062 30.175781 17.039062 C 29.863281 17.039062 29.609375 16.785156 29.609375 16.472656 C 29.609375 16.160156 29.863281 15.90625 30.175781 15.90625 C 30.488281 15.90625 30.742188 16.160156 30.742188 16.472656 Z M 30.742188 16.472656 "/>
<g clip-path="url(#clip5)" clip-rule="nonzero">
<path style=" stroke:none;fill-rule:nonzero;fill:rgb(98.81897%,79.60968%,11.759949%);fill-opacity:1;" d="M 31.292969 13.285156 C 27.285156 12.699219 21.960938 12.613281 17.992188 13.433594 C 17.972656 11.105469 17.484375 8.808594 16.996094 6.53125 C 18.558594 7.949219 20.304688 9.160156 22.179688 10.121094 C 23.574219 8.558594 24.75 6.585938 25.511719 4.910156 C 26.269531 6.585938 27.449219 8.65625 28.402344 10.089844 C 29.921875 8.726562 31.140625 7.347656 32.453125 6.164062 C 31.597656 8.871094 31.292969 11.152344 31.265625 13.347656 "/>
<path style=" stroke:none;fill-rule:nonzero;fill:rgb(6.269836%,5.879211%,5.099487%);fill-opacity:1;" d="M 31.390625 12.933594 C 28.167969 12.5 24.910156 12.335938 21.664062 12.578125 C 20.597656 12.65625 18.878906 13.304688 18.3125 12.273438 C 18.394531 12.421875 17.996094 9.710938 18.023438 9.867188 C 17.839844 8.714844 17.589844 7.574219 17.351562 6.433594 C 17.148438 6.550781 16.941406 6.671875 16.738281 6.789062 C 18.378906 8.214844 20.082031 9.398438 21.996094 10.4375 C 22.128906 10.507812 22.332031 10.503906 22.4375 10.378906 C 23.003906 9.703125 23.300781 9.359375 23.808594 8.632812 C 23.964844 8.40625 25.203125 6.019531 25.410156 5.953125 C 25.660156 5.875 27.792969 9.816406 28.085938 10.273438 C 28.21875 10.476562 28.484375 10.511719 28.660156 10.347656 C 30.042969 9.070312 31.335938 7.707031 32.710938 6.421875 C 32.507812 6.300781 32.304688 6.183594 32.097656 6.066406 C 31.390625 8.476562 30.980469 10.835938 30.898438 13.347656 C 30.882812 13.816406 31.613281 13.816406 31.628906 13.347656 C 31.707031 10.910156 32.121094 8.59375 32.804688 6.257812 C 32.910156 5.898438 32.453125 5.660156 32.191406 5.902344 C 31.460938 6.589844 29.5 9.222656 28.554688 9.144531 C 27.507812 9.054688 26.253906 5.625 25.824219 4.726562 C 25.710938 4.488281 25.308594 4.488281 25.195312 4.726562 C 24.519531 6.128906 23.773438 8.109375 22.308594 8.785156 C 21.117188 9.332031 21.152344 9.183594 20.09375 8.472656 C 19.097656 7.800781 18.160156 7.058594 17.257812 6.273438 C 16.976562 6.03125 16.566406 6.261719 16.644531 6.628906 C 17.121094 8.886719 17.535156 11.121094 17.628906 13.433594 C 17.636719 13.6875 17.851562 13.832031 18.089844 13.785156 C 22.40625 12.980469 26.855469 13.054688 31.199219 13.636719 C 31.65625 13.699219 31.855469 12.996094 31.390625 12.933594 "/>
</g>
<path style=" stroke:none;fill-rule:nonzero;fill:rgb(98.039246%,96.859741%,51.368713%);fill-opacity:1;" d="M 25.390625 5.289062 C 25.824219 5.363281 26.300781 5.199219 26.550781 4.835938 C 26.796875 4.476562 26.757812 3.925781 26.417969 3.648438 C 26.261719 3.519531 26.054688 3.453125 25.851562 3.4375 C 25.175781 3.386719 24.503906 3.921875 24.402344 4.59375 C 24.386719 4.699219 24.382812 4.8125 24.425781 4.914062 C 24.492188 5.058594 24.640625 5.148438 24.785156 5.210938 C 25.089844 5.347656 25.421875 5.421875 25.753906 5.429688 "/>
<path style=" stroke:none;fill-rule:nonzero;fill:rgb(6.269836%,5.879211%,5.099487%);fill-opacity:1;" d="M 25.390625 5.566406 C 26.121094 5.648438 26.902344 5.214844 26.976562 4.429688 C 27.046875 3.660156 26.417969 3.121094 25.675781 3.164062 C 24.9375 3.210938 24.265625 3.789062 24.136719 4.519531 C 23.980469 5.429688 25.058594 5.667969 25.753906 5.703125 C 26.105469 5.71875 26.105469 5.171875 25.753906 5.152344 C 25.375 5.136719 24.535156 5.039062 24.707031 4.492188 C 24.835938 4.082031 25.230469 3.769531 25.652344 3.71875 C 26.105469 3.667969 26.535156 3.96875 26.417969 4.464844 C 26.308594 4.925781 25.804688 5.066406 25.390625 5.015625 C 25.039062 4.976562 25.042969 5.523438 25.390625 5.566406 "/>
<path style=" stroke:none;fill-rule:nonzero;fill:rgb(98.039246%,96.859741%,51.368713%);fill-opacity:1;" d="M 32.1875 6.109375 C 32.355469 6.21875 32.535156 6.308594 32.722656 6.371094 C 33.078125 6.492188 33.492188 6.519531 33.8125 6.328125 C 34.136719 6.136719 34.3125 5.679688 34.109375 5.363281 C 34.039062 5.257812 33.9375 5.175781 33.835938 5.105469 C 33.554688 4.902344 33.230469 4.722656 32.886719 4.746094 C 32.726562 4.753906 32.570312 4.808594 32.421875 4.875 C 32.25 4.953125 32.082031 5.058594 32 5.226562 C 31.894531 5.4375 31.964844 5.707031 32.117188 5.886719 C 32.269531 6.070312 32.488281 6.179688 32.710938 6.265625 "/>
<path style=" stroke:none;fill-rule:nonzero;fill:rgb(6.269836%,5.879211%,5.099487%);fill-opacity:1;" d="M 32.050781 6.34375 C 32.667969 6.722656 33.609375 6.984375 34.183594 6.378906 C 34.757812 5.765625 34.371094 5.085938 33.757812 4.722656 C 33.164062 4.375 32.300781 4.378906 31.84375 4.964844 C 31.3125 5.644531 32.050781 6.289062 32.636719 6.53125 C 32.964844 6.664062 33.105469 6.136719 32.785156 6.003906 C 32.328125 5.816406 31.964844 5.335938 32.605469 5.09375 C 32.964844 4.957031 33.28125 5.058594 33.589844 5.265625 C 33.976562 5.527344 34.027344 6.007812 33.515625 6.160156 C 33.105469 6.28125 32.667969 6.082031 32.328125 5.871094 C 32.027344 5.6875 31.75 6.160156 32.050781 6.34375 "/>
<path style=" stroke:none;fill-rule:nonzero;fill:rgb(98.039246%,96.859741%,51.368713%);fill-opacity:1;" d="M 17.085938 6.679688 C 17.464844 6.460938 17.726562 6.042969 17.761719 5.605469 C 17.769531 5.503906 17.765625 5.402344 17.71875 5.3125 C 17.683594 5.238281 17.625 5.179688 17.558594 5.132812 C 17.289062 4.941406 16.921875 4.953125 16.609375 5.0625 C 16.386719 5.140625 16.179688 5.265625 16.003906 5.425781 C 15.863281 5.554688 15.742188 5.714844 15.6875 5.894531 C 15.636719 6.078125 15.65625 6.292969 15.773438 6.441406 C 15.894531 6.589844 16.089844 6.660156 16.28125 6.679688 C 16.707031 6.726562 17.152344 6.550781 17.433594 6.226562 "/>
<path style=" stroke:none;fill-rule:nonzero;fill:rgb(6.269836%,5.879211%,5.099487%);fill-opacity:1;" d="M 17.222656 6.914062 C 17.730469 6.589844 18.285156 5.796875 17.957031 5.171875 C 17.585938 4.46875 16.550781 4.691406 16.03125 5.054688 C 15.523438 5.414062 15.082031 6.199219 15.660156 6.714844 C 16.234375 7.222656 17.164062 6.902344 17.628906 6.417969 C 17.871094 6.164062 17.484375 5.777344 17.242188 6.03125 C 16.992188 6.292969 16.609375 6.488281 16.238281 6.398438 C 15.601562 6.242188 16.121094 5.632812 16.425781 5.449219 C 16.683594 5.292969 17.410156 5.054688 17.488281 5.554688 C 17.542969 5.902344 17.210938 6.273438 16.945312 6.441406 C 16.648438 6.632812 16.925781 7.105469 17.222656 6.914062 "/>
<g clip-path="url(#clip6)" clip-rule="nonzero">
<path style=" stroke:none;fill-rule:nonzero;fill:rgb(6.269836%,5.879211%,5.099487%);fill-opacity:1;" d="M 14.019531 7.984375 C 13.203125 7.835938 12.390625 7.683594 11.574219 7.53125 C 11.230469 7.46875 11.082031 7.996094 11.429688 8.058594 C 12.242188 8.210938 13.058594 8.363281 13.871094 8.515625 C 14.21875 8.578125 14.363281 8.050781 14.019531 7.984375 "/>
</g>
<path style=" stroke:none;fill-rule:nonzero;fill:rgb(6.269836%,5.879211%,5.099487%);fill-opacity:1;" d="M 15.308594 3.632812 C 14.890625 3.074219 14.367188 2.667969 13.71875 2.402344 C 13.394531 2.265625 13.25 2.796875 13.574219 2.929688 C 14.074219 3.136719 14.511719 3.476562 14.835938 3.910156 C 15.046875 4.1875 15.519531 3.917969 15.308594 3.632812 "/>
<path style=" stroke:none;fill-rule:nonzero;fill:rgb(6.269836%,5.879211%,5.099487%);fill-opacity:1;" d="M 21.410156 2.316406 C 21.351562 1.652344 21.269531 0.992188 21.167969 0.335938 C 21.117188 -0.0117188 20.589844 0.132812 20.640625 0.480469 C 20.734375 1.089844 20.808594 1.703125 20.863281 2.316406 C 20.894531 2.664062 21.445312 2.667969 21.410156 2.316406 "/>
<path style=" stroke:none;fill-rule:nonzero;fill:rgb(6.269836%,5.879211%,5.099487%);fill-opacity:1;" d="M 28.441406 1.925781 C 28.488281 1.324219 28.59375 0.730469 28.746094 0.148438 C 28.835938 -0.191406 28.308594 -0.339844 28.21875 0.00390625 C 28.054688 0.632812 27.945312 1.273438 27.894531 1.925781 C 27.863281 2.277344 28.414062 2.273438 28.441406 1.925781 "/>
<path style=" stroke:none;fill-rule:nonzero;fill:rgb(6.269836%,5.879211%,5.099487%);fill-opacity:1;" d="M 33.683594 2.605469 C 34.203125 2.347656 34.722656 2.089844 35.246094 1.832031 C 35.558594 1.675781 35.28125 1.199219 34.96875 1.359375 C 34.449219 1.617188 33.925781 1.875 33.40625 2.132812 C 33.089844 2.289062 33.367188 2.765625 33.683594 2.605469 "/>
<g clip-path="url(#clip7)" clip-rule="nonzero">
<path style=" stroke:none;fill-rule:nonzero;fill:rgb(6.269836%,5.879211%,5.099487%);fill-opacity:1;" d="M 36.078125 6.6875 C 36.5625 6.6875 37.050781 6.6875 37.539062 6.6875 C 37.890625 6.6875 37.890625 6.136719 37.539062 6.136719 C 37.050781 6.136719 36.5625 6.136719 36.078125 6.136719 C 35.722656 6.136719 35.722656 6.6875 36.078125 6.6875 "/>
</g>
<g clip-path="url(#clip8)" clip-rule="nonzero">
<path style=" stroke:none;fill-rule:nonzero;fill:rgb(6.269836%,5.879211%,5.099487%);fill-opacity:1;" d="M 35.757812 10.140625 C 36.117188 10.089844 36.472656 10.039062 36.832031 9.988281 C 37.179688 9.9375 37.03125 9.410156 36.683594 9.460938 C 36.328125 9.511719 35.972656 9.5625 35.613281 9.613281 C 35.265625 9.664062 35.414062 10.191406 35.757812 10.140625 "/>
</g>
</g>
</svg>
