<?xml version="1.0" encoding="UTF-8"?>
<svg xmlns="http://www.w3.org/2000/svg" xmlns:xlink="http://www.w3.org/1999/xlink" width="375pt" height="374.999991pt" viewBox="0 0 375 374.999991" version="1.2">
<defs>
<clipPath id="clip1">
  <path d="M 37.5 67.367188 L 345.417969 67.367188 L 345.417969 318 L 37.5 318 Z M 37.5 67.367188 "/>
</clipPath>
<clipPath id="clip2">
  <path d="M 136 67.367188 L 172 67.367188 L 172 115 L 136 115 Z M 136 67.367188 "/>
</clipPath>
<clipPath id="clip3">
  <path d="M 211 67.367188 L 248 67.367188 L 248 115 L 211 115 Z M 211 67.367188 "/>
</clipPath>
<clipPath id="clip4">
  <path d="M 128 36 L 258 36 L 258 110.296875 L 128 110.296875 Z M 128 36 "/>
</clipPath>
</defs>
<g id="surface1">
<g clip-path="url(#clip1)" clip-rule="nonzero">
<path style=" stroke:none;fill-rule:nonzero;fill:rgb(52.159119%,98.039246%,95.689392%);fill-opacity:1;" d="M 312.175781 317.445312 C 333.160156 291.117188 345.710938 257.761719 345.710938 221.472656 C 345.710938 136.363281 276.714844 67.367188 191.605469 67.367188 C 106.496094 67.367188 37.5 136.363281 37.5 221.472656 C 37.5 257.761719 50.050781 291.117188 71.035156 317.445312 Z M 312.175781 317.445312 "/>
</g>
<path style=" stroke:none;fill-rule:nonzero;fill:rgb(69.799805%,21.958923%,10.5896%);fill-opacity:1;" d="M 122.992188 176.929688 L 71.035156 317.445312 C 99.269531 352.871094 142.78125 375.578125 191.605469 375.578125 C 240.429688 375.578125 283.941406 352.871094 312.175781 317.445312 L 260.21875 176.929688 Z M 122.992188 176.929688 "/>
<path style=" stroke:none;fill-rule:nonzero;fill:rgb(61.959839%,17.649841%,8.628845%);fill-opacity:1;" d="M 133.8125 176.929688 L 122.992188 176.929688 L 71.035156 317.445312 C 88.191406 338.96875 110.992188 355.785156 137.191406 365.679688 L 146.324219 328.703125 C 147.171875 325.269531 142.910156 322.949219 140.492188 325.523438 L 137.605469 328.585938 C 135.140625 331.207031 130.816406 328.75 131.804688 325.292969 L 136.804688 307.726562 C 137.742188 304.433594 133.808594 301.945312 131.234375 304.207031 C 128.5625 306.550781 124.519531 303.777344 125.75 300.4375 L 171.152344 176.929688 Z M 133.8125 176.929688 "/>
<g clip-path="url(#clip2)" clip-rule="nonzero">
<path style=" stroke:none;fill-rule:nonzero;fill:rgb(75.289917%,29.019165%,15.289307%);fill-opacity:1;" d="M 171.277344 87.308594 C 157.089844 91.703125 154.082031 67.367188 142.84375 67.367188 C 131.609375 67.367188 138.035156 114.523438 138.035156 114.523438 L 171.277344 95.660156 Z M 171.277344 87.308594 "/>
</g>
<g clip-path="url(#clip3)" clip-rule="nonzero">
<path style=" stroke:none;fill-rule:nonzero;fill:rgb(75.289917%,29.019165%,15.289307%);fill-opacity:1;" d="M 211.933594 87.308594 C 226.121094 91.703125 229.128906 67.367188 240.367188 67.367188 C 251.601562 67.367188 245.175781 114.523438 245.175781 114.523438 L 211.933594 95.660156 Z M 211.933594 87.308594 "/>
</g>
<path style=" stroke:none;fill-rule:nonzero;fill:rgb(69.799805%,21.958923%,10.5896%);fill-opacity:1;" d="M 246.890625 94.347656 C 240.9375 88.796875 233.742188 84.527344 225.355469 81.546875 C 221.894531 85.917969 217.90625 89.160156 211.933594 87.308594 L 211.933594 95.660156 L 245.175781 114.523438 C 245.175781 114.523438 246.484375 104.898438 246.890625 94.347656 Z M 246.890625 94.347656 "/>
<path style=" stroke:none;fill-rule:nonzero;fill:rgb(69.799805%,21.958923%,10.5896%);fill-opacity:1;" d="M 138.035156 114.523438 L 171.277344 95.660156 L 171.277344 87.308594 C 165.375 89.136719 161.410156 85.992188 157.980469 81.699219 C 149.523438 84.765625 142.296875 89.160156 136.34375 94.859375 C 136.765625 105.207031 138.035156 114.523438 138.035156 114.523438 Z M 138.035156 114.523438 "/>
<path style=" stroke:none;fill-rule:nonzero;fill:rgb(84.709167%,36.859131%,25.489807%);fill-opacity:1;" d="M 272.574219 173.558594 C 260.988281 163 254.488281 147.972656 254.488281 132.296875 L 254.488281 131.796875 C 254.488281 114.152344 241.570312 85.429688 191.882812 85.429688 C 142.195312 85.429688 129.277344 114.152344 129.277344 131.796875 C 129.277344 147.683594 122.503906 162.78125 110.746094 173.464844 C 97.285156 185.691406 89.269531 201.054688 89.269531 217.738281 C 89.269531 257.632812 135.089844 289.972656 191.605469 289.972656 C 248.121094 289.972656 293.941406 257.632812 293.941406 217.738281 C 293.941406 201.097656 285.96875 185.773438 272.574219 173.558594 Z M 272.574219 173.558594 "/>
<path style=" stroke:none;fill-rule:nonzero;fill:rgb(75.289917%,29.019165%,15.289307%);fill-opacity:1;" d="M 238.730469 281.871094 C 157.035156 282.675781 121.09375 248.5625 121.09375 212.847656 C 121.09375 177.128906 144.851562 162.28125 150.972656 135.894531 C 157.09375 109.507812 187.792969 87.308594 211.933594 87.308594 L 211.933594 87.257812 C 206.03125 86.085938 199.378906 85.429688 191.882812 85.429688 C 142.195312 85.429688 129.277344 114.152344 129.277344 131.796875 C 129.277344 147.683594 122.503906 162.78125 110.746094 173.464844 C 97.285156 185.691406 89.269531 201.054688 89.269531 217.738281 C 89.269531 257.632812 135.089844 289.972656 191.605469 289.972656 C 208.601562 289.972656 224.625 287.050781 238.730469 281.871094 Z M 238.730469 281.871094 "/>
<path style=" stroke:none;fill-rule:nonzero;fill:rgb(95.689392%,79.60968%,43.139648%);fill-opacity:1;" d="M 219.757812 233.054688 C 219.757812 248.601562 207.152344 261.203125 191.605469 261.203125 C 176.058594 261.203125 163.453125 248.601562 163.453125 233.054688 C 163.453125 217.503906 176.058594 204.898438 191.605469 204.898438 C 207.152344 204.898438 219.757812 217.503906 219.757812 233.054688 Z M 219.757812 233.054688 "/>
<path style=" stroke:none;fill-rule:nonzero;fill:rgb(97.648621%,84.309387%,47.059631%);fill-opacity:1;" d="M 210.535156 162.578125 L 172.675781 162.578125 C 162.21875 162.578125 153.742188 171.054688 153.742188 181.511719 L 153.742188 223.421875 C 153.742188 233.878906 162.21875 242.351562 172.675781 242.351562 C 183.128906 242.351562 191.605469 233.875 191.605469 223.421875 C 191.605469 233.878906 200.082031 242.351562 210.535156 242.351562 C 220.992188 242.351562 229.46875 233.875 229.46875 223.421875 L 229.46875 181.511719 C 229.46875 171.054688 220.992188 162.578125 210.535156 162.578125 Z M 210.535156 162.578125 "/>
<path style=" stroke:none;fill-rule:nonzero;fill:rgb(95.689392%,79.60968%,43.139648%);fill-opacity:1;" d="M 172.675781 223.421875 L 172.675781 181.511719 C 172.675781 171.054688 181.148438 162.578125 191.605469 162.578125 L 172.675781 162.578125 C 162.21875 162.578125 153.742188 171.054688 153.742188 181.511719 L 153.742188 223.421875 C 153.742188 233.878906 162.21875 242.351562 172.675781 242.351562 C 176.125 242.351562 179.351562 241.425781 182.140625 239.8125 C 176.480469 236.539062 172.675781 230.425781 172.675781 223.421875 Z M 172.675781 223.421875 "/>
<path style=" stroke:none;fill-rule:nonzero;fill:rgb(95.689392%,79.60968%,43.139648%);fill-opacity:1;" d="M 191.605469 242.351562 C 189.113281 242.351562 187.089844 240.328125 187.089844 237.835938 L 187.089844 174.847656 C 187.089844 172.355469 189.113281 170.335938 191.605469 170.335938 C 194.097656 170.335938 196.121094 172.355469 196.121094 174.847656 L 196.121094 237.835938 C 196.121094 240.328125 194.097656 242.351562 191.605469 242.351562 Z M 191.605469 242.351562 "/>
<path style=" stroke:none;fill-rule:nonzero;fill:rgb(49.409485%,34.899902%,39.99939%);fill-opacity:1;" d="M 208.753906 152.210938 C 202.195312 148.722656 199.484375 155.609375 191.605469 155.609375 C 183.726562 155.609375 181.019531 148.722656 174.457031 152.210938 C 157.308594 161.324219 174.457031 182.179688 191.605469 182.179688 C 208.753906 182.179688 225.902344 161.324219 208.753906 152.210938 Z M 208.753906 152.210938 "/>
<path style=" stroke:none;fill-rule:nonzero;fill:rgb(44.709778%,31.369019%,34.118652%);fill-opacity:1;" d="M 185.457031 154.117188 C 181.65625 152.320312 178.96875 149.8125 174.457031 152.210938 C 157.308594 161.324219 174.457031 182.179688 191.605469 182.179688 C 193.953125 182.179688 196.300781 181.789062 198.554688 181.089844 C 185.378906 177.019531 175.191406 162.5 185.457031 154.117188 Z M 185.457031 154.117188 "/>
<path style=" stroke:none;fill-rule:nonzero;fill:rgb(32.939148%,20.388794%,21.958923%);fill-opacity:1;" d="M 160 135.894531 C 160 140.882812 155.960938 144.921875 150.972656 144.921875 C 145.984375 144.921875 141.941406 140.882812 141.941406 135.894531 C 141.941406 130.90625 145.984375 126.863281 150.972656 126.863281 C 155.960938 126.863281 160 130.90625 160 135.894531 Z M 160 135.894531 "/>
<path style=" stroke:none;fill-rule:nonzero;fill:rgb(100%,100%,100%);fill-opacity:1;" d="M 160 131.378906 C 160 133.871094 157.980469 135.894531 155.488281 135.894531 C 152.996094 135.894531 150.972656 133.871094 150.972656 131.378906 C 150.972656 128.886719 152.996094 126.863281 155.488281 126.863281 C 157.980469 126.863281 160 128.886719 160 131.378906 Z M 160 131.378906 "/>
<path style=" stroke:none;fill-rule:nonzero;fill:rgb(32.939148%,20.388794%,21.958923%);fill-opacity:1;" d="M 241.269531 135.894531 C 241.269531 140.882812 237.226562 144.921875 232.238281 144.921875 C 227.25 144.921875 223.210938 140.882812 223.210938 135.894531 C 223.210938 130.90625 227.25 126.863281 232.238281 126.863281 C 237.226562 126.863281 241.269531 130.90625 241.269531 135.894531 Z M 241.269531 135.894531 "/>
<path style=" stroke:none;fill-rule:nonzero;fill:rgb(100%,100%,100%);fill-opacity:1;" d="M 241.269531 131.378906 C 241.269531 133.871094 239.246094 135.894531 236.753906 135.894531 C 234.261719 135.894531 232.238281 133.871094 232.238281 131.378906 C 232.238281 128.886719 234.261719 126.863281 236.753906 126.863281 C 239.246094 126.863281 241.269531 128.886719 241.269531 131.378906 Z M 241.269531 131.378906 "/>
<path style=" stroke:none;fill-rule:nonzero;fill:rgb(98.81897%,79.60968%,11.759949%);fill-opacity:1;" d="M 245.675781 105.957031 C 213.699219 101.269531 171.246094 100.589844 139.59375 107.140625 C 139.421875 88.566406 135.53125 70.25 131.65625 52.085938 C 144.09375 63.386719 158.03125 73.046875 172.980469 80.722656 C 184.097656 68.253906 193.46875 52.519531 199.539062 39.164062 C 205.609375 52.519531 215.023438 69.039062 222.609375 80.453125 C 234.738281 69.609375 244.460938 58.59375 254.902344 49.144531 C 248.105469 70.738281 245.675781 88.957031 245.4375 106.453125 "/>
<g clip-path="url(#clip4)" clip-rule="nonzero">
<path style=" stroke:none;fill-rule:nonzero;fill:rgb(6.269836%,5.879211%,5.099487%);fill-opacity:1;" d="M 246.449219 103.148438 C 220.75 99.691406 194.769531 98.371094 168.871094 100.308594 C 160.359375 100.941406 146.671875 106.097656 142.128906 97.875 C 142.785156 99.058594 139.628906 77.453125 139.824219 78.683594 C 138.363281 69.5 136.386719 60.402344 134.464844 51.308594 C 132.84375 52.253906 131.21875 53.199219 129.59375 54.144531 C 142.664062 65.503906 156.246094 74.96875 171.511719 83.238281 C 172.566406 83.808594 174.207031 83.785156 175.039062 82.785156 C 179.550781 77.378906 181.933594 74.636719 185.972656 68.84375 C 187.234375 67.039062 197.082031 48.019531 198.75 47.484375 C 200.742188 46.851562 217.753906 78.289062 220.09375 81.925781 C 221.136719 83.542969 223.25 83.824219 224.667969 82.515625 C 235.691406 72.335938 246.015625 61.460938 256.964844 51.207031 C 255.339844 50.261719 253.714844 49.316406 252.09375 48.371094 C 246.457031 67.617188 243.167969 86.421875 242.523438 106.453125 C 242.402344 110.203125 248.230469 110.199219 248.351562 106.453125 C 248.976562 87.019531 252.253906 68.550781 257.714844 49.921875 C 258.554688 47.042969 254.910156 45.148438 252.84375 47.085938 C 247.003906 52.554688 231.359375 73.566406 223.8125 72.925781 C 215.488281 72.21875 205.464844 44.847656 202.054688 37.691406 C 201.144531 35.78125 197.9375 35.792969 197.023438 37.691406 C 191.632812 48.878906 185.6875 64.664062 174.003906 70.054688 C 164.503906 74.433594 164.792969 73.234375 156.351562 67.5625 C 148.40625 62.226562 140.933594 56.300781 133.714844 50.023438 C 131.5 48.097656 128.230469 49.945312 128.847656 52.859375 C 132.652344 70.882812 135.925781 88.683594 136.679688 107.140625 C 136.765625 109.148438 138.46875 110.300781 140.367188 109.949219 C 174.792969 103.53125 210.289062 104.113281 244.902344 108.765625 C 248.570312 109.257812 250.15625 103.644531 246.449219 103.148438 "/>
</g>
<path style=" stroke:none;fill-rule:nonzero;fill:rgb(98.039246%,96.859741%,51.368713%);fill-opacity:1;" d="M 198.589844 42.191406 C 202.035156 42.765625 205.863281 41.460938 207.84375 38.578125 C 209.820312 35.695312 209.484375 31.300781 206.78125 29.089844 C 205.523438 28.058594 203.898438 27.550781 202.277344 27.425781 C 196.878906 27.019531 191.53125 31.269531 190.710938 36.628906 C 190.582031 37.484375 190.5625 38.386719 190.90625 39.179688 C 191.410156 40.34375 192.597656 41.050781 193.757812 41.566406 C 196.183594 42.644531 198.828125 43.234375 201.484375 43.289062 "/>
<path style=" stroke:none;fill-rule:nonzero;fill:rgb(6.269836%,5.879211%,5.099487%);fill-opacity:1;" d="M 198.589844 44.378906 C 204.410156 45.054688 210.648438 41.585938 211.234375 35.328125 C 211.804688 29.183594 206.796875 24.898438 200.855469 25.25 C 194.988281 25.601562 189.628906 30.222656 188.605469 36.046875 C 187.335938 43.300781 195.949219 45.199219 201.484375 45.476562 C 204.296875 45.617188 204.289062 41.246094 201.484375 41.105469 C 198.480469 40.957031 191.78125 40.203125 193.148438 35.820312 C 194.171875 32.554688 197.296875 30.046875 200.679688 29.660156 C 204.289062 29.246094 207.710938 31.65625 206.785156 35.609375 C 205.921875 39.292969 201.898438 40.394531 198.589844 40.007812 C 195.800781 39.679688 195.824219 44.054688 198.589844 44.378906 "/>
<path style=" stroke:none;fill-rule:nonzero;fill:rgb(98.039246%,96.859741%,51.368713%);fill-opacity:1;" d="M 252.804688 48.71875 C 254.128906 49.59375 255.5625 50.296875 257.066406 50.808594 C 259.902344 51.773438 263.1875 51.988281 265.765625 50.464844 C 268.347656 48.9375 269.75 45.285156 268.117188 42.769531 C 267.566406 41.925781 266.761719 41.292969 265.945312 40.707031 C 263.710938 39.097656 261.128906 37.675781 258.382812 37.84375 C 257.089844 37.917969 255.84375 38.351562 254.667969 38.886719 C 253.3125 39.5 251.949219 40.335938 251.289062 41.671875 C 250.453125 43.371094 251.007812 45.511719 252.226562 46.964844 C 253.441406 48.417969 255.203125 49.300781 256.96875 49.984375 "/>
<path style=" stroke:none;fill-rule:nonzero;fill:rgb(6.269836%,5.879211%,5.099487%);fill-opacity:1;" d="M 251.703125 50.605469 C 256.613281 53.628906 264.148438 55.707031 268.707031 50.863281 C 273.292969 45.996094 270.207031 40.546875 265.308594 37.671875 C 260.59375 34.902344 253.699219 34.917969 250.046875 39.605469 C 245.832031 45.019531 251.695312 50.171875 256.386719 52.089844 C 258.992188 53.15625 260.125 48.925781 257.550781 47.875 C 253.914062 46.386719 251.019531 42.566406 256.144531 40.613281 C 259 39.527344 261.519531 40.332031 263.988281 42.003906 C 267.070312 44.082031 267.460938 47.917969 263.375 49.125 C 260.113281 50.089844 256.621094 48.503906 253.90625 46.832031 C 251.503906 45.355469 249.308594 49.136719 251.703125 50.605469 "/>
<path style=" stroke:none;fill-rule:nonzero;fill:rgb(98.039246%,96.859741%,51.368713%);fill-opacity:1;" d="M 132.34375 53.269531 C 135.386719 51.515625 137.476562 48.199219 137.742188 44.695312 C 137.800781 43.90625 137.765625 43.078125 137.417969 42.363281 C 137.136719 41.777344 136.652344 41.304688 136.121094 40.929688 C 133.972656 39.425781 131.039062 39.503906 128.558594 40.371094 C 126.773438 40.992188 125.117188 41.984375 123.726562 43.269531 C 122.609375 44.308594 121.644531 45.5625 121.214844 47.023438 C 120.789062 48.488281 120.957031 50.175781 121.902344 51.371094 C 122.847656 52.566406 124.410156 53.113281 125.925781 53.277344 C 129.339844 53.644531 132.890625 52.242188 135.140625 49.648438 "/>
<path style=" stroke:none;fill-rule:nonzero;fill:rgb(6.269836%,5.879211%,5.099487%);fill-opacity:1;" d="M 133.449219 55.15625 C 137.488281 52.570312 141.9375 46.242188 139.304688 41.257812 C 136.347656 35.65625 128.097656 37.402344 123.953125 40.316406 C 119.886719 43.171875 116.363281 49.457031 120.992188 53.558594 C 125.554688 57.601562 132.976562 55.054688 136.683594 51.195312 C 138.632812 49.164062 135.546875 46.070312 133.59375 48.101562 C 131.605469 50.179688 128.570312 51.757812 125.597656 51.023438 C 120.53125 49.773438 124.679688 44.9375 127.105469 43.46875 C 129.160156 42.226562 134.960938 40.296875 135.566406 44.296875 C 135.992188 47.082031 133.347656 50.035156 131.242188 51.382812 C 128.878906 52.890625 131.070312 56.675781 133.449219 55.15625 "/>
<path style=" stroke:none;fill-rule:nonzero;fill:rgb(6.269836%,5.879211%,5.099487%);fill-opacity:1;" d="M 107.890625 63.6875 C 101.394531 62.480469 94.898438 61.273438 88.398438 60.070312 C 85.652344 59.558594 84.472656 63.769531 87.238281 64.285156 C 93.734375 65.492188 100.230469 66.695312 106.726562 67.902344 C 109.480469 68.410156 110.65625 64.199219 107.890625 63.6875 "/>
<path style=" stroke:none;fill-rule:nonzero;fill:rgb(6.269836%,5.879211%,5.099487%);fill-opacity:1;" d="M 118.191406 28.976562 C 114.859375 24.511719 110.660156 21.265625 105.511719 19.148438 C 102.910156 18.078125 101.78125 22.304688 104.347656 23.363281 C 108.34375 25.003906 111.835938 27.722656 114.417969 31.179688 C 116.085938 33.410156 119.878906 31.234375 118.191406 28.976562 "/>
<path style=" stroke:none;fill-rule:nonzero;fill:rgb(6.269836%,5.879211%,5.099487%);fill-opacity:1;" d="M 166.859375 18.480469 C 166.382812 13.1875 165.730469 7.917969 164.929688 2.667969 C 164.503906 -0.105469 160.292969 1.070312 160.714844 3.828125 C 161.460938 8.695312 162.046875 13.578125 162.492188 18.480469 C 162.742188 21.257812 167.113281 21.285156 166.859375 18.480469 "/>
<path style=" stroke:none;fill-rule:nonzero;fill:rgb(6.269836%,5.879211%,5.099487%);fill-opacity:1;" d="M 222.921875 15.347656 C 223.308594 10.546875 224.136719 5.839844 225.363281 1.183594 C 226.078125 -1.539062 221.863281 -2.699219 221.148438 0.0234375 C 219.824219 5.054688 218.972656 10.160156 218.546875 15.347656 C 218.320312 18.152344 222.691406 18.136719 222.921875 15.347656 "/>
<path style=" stroke:none;fill-rule:nonzero;fill:rgb(6.269836%,5.879211%,5.099487%);fill-opacity:1;" d="M 264.71875 20.792969 C 268.871094 18.730469 273.027344 16.667969 277.179688 14.601562 C 279.699219 13.351562 277.484375 9.578125 274.972656 10.828125 C 270.820312 12.890625 266.667969 14.953125 262.511719 17.015625 C 259.996094 18.269531 262.207031 22.042969 264.71875 20.792969 "/>
<path style=" stroke:none;fill-rule:nonzero;fill:rgb(6.269836%,5.879211%,5.099487%);fill-opacity:1;" d="M 283.8125 53.320312 C 287.699219 53.320312 291.589844 53.320312 295.472656 53.320312 C 298.285156 53.320312 298.292969 48.949219 295.472656 48.949219 C 291.589844 48.949219 287.699219 48.949219 283.8125 48.949219 C 281 48.949219 280.996094 53.320312 283.8125 53.320312 "/>
<path style=" stroke:none;fill-rule:nonzero;fill:rgb(6.269836%,5.879211%,5.099487%);fill-opacity:1;" d="M 281.285156 80.886719 C 284.132812 80.480469 286.980469 80.070312 289.832031 79.664062 C 292.605469 79.265625 291.425781 75.054688 288.671875 75.449219 C 285.820312 75.855469 282.972656 76.265625 280.125 76.671875 C 277.351562 77.070312 278.53125 81.28125 281.285156 80.886719 "/>
</g>
</svg>
